<svg width="314" height="77" viewBox="0 0 314 77" fill="none" xmlns="http://www.w3.org/2000/svg">
<path d="M276.301 22.8624H291.229V32.6684H291.45C292.114 31.1363 293.109 29.6041 294.436 28.174C295.652 26.744 297.09 25.6204 298.748 24.5989C300.296 23.5774 302.066 22.8624 303.946 22.2495C305.715 21.7388 307.705 21.5345 309.696 21.4324C310.691 21.4324 311.797 21.6367 313.124 21.9431V35.4264C312.35 35.3243 311.465 35.2221 310.47 35.12C309.364 35.0178 308.369 34.9157 307.484 34.9157C304.609 34.9157 302.176 35.4264 300.186 36.2436C298.195 37.1629 296.537 38.3886 295.32 39.9208C294.104 41.453 293.219 43.1895 292.777 45.2324C292.224 47.2754 292.003 49.5226 292.003 51.8719V75.9103H276.301V22.8624Z" fill="#10239E"/>
<path d="M255.155 43.5981C254.381 39.9208 253.054 37.1629 251.174 35.2221C249.295 33.3835 246.42 32.4642 242.66 32.362C240.116 32.362 238.015 32.7706 236.357 33.5878C234.698 34.4049 233.371 35.3243 232.376 36.4479C231.381 37.6736 230.717 38.8994 230.275 40.1251C229.833 41.453 229.611 42.5766 229.611 43.5981H255.155ZM229.611 52.7913C229.833 57.49 231.049 60.9629 233.482 63.0059C235.804 65.1509 239.232 66.1724 243.655 66.1724C246.751 66.1724 249.516 65.4574 251.838 64.0273C254.049 62.5973 255.487 60.9629 256.04 59.3286H269.862C267.651 65.6617 264.223 70.2582 259.689 72.914C255.045 75.672 249.516 76.9999 243.102 76.9999C238.568 76.9999 234.477 76.387 230.938 75.0591C227.289 73.7312 224.193 71.7904 221.76 69.3389C219.217 66.8874 217.227 64.0273 215.9 60.5544C214.573 57.1835 213.909 53.4041 213.909 49.3183C213.909 45.4367 214.573 41.7595 216.01 38.2865C217.337 34.9157 219.328 31.9534 221.981 29.5019C224.525 27.0504 227.621 25.0075 231.16 23.5774C234.698 22.1474 238.679 21.4324 243.102 21.4324C247.968 21.4324 252.17 22.3517 255.819 24.0882C259.357 25.8247 262.343 28.174 264.665 31.0341C266.987 33.9964 268.646 37.3672 269.752 41.0444C270.747 44.8238 271.079 48.7054 270.858 52.7913H229.611Z" fill="#10239E"/>
<path d="M194.62 75.9104H177.149L157.677 22.8625H174.153L186.206 58.9202H186.427L198.481 22.8625H214.072L194.62 75.9104Z" fill="#10239E"/>
<path d="M141.95 43.5981C141.176 39.9208 139.849 37.1629 137.969 35.2221C136.089 33.3835 133.214 32.4642 129.455 32.362C126.911 32.362 124.81 32.7706 123.152 33.5878C121.493 34.4049 120.166 35.3243 119.171 36.4479C118.176 37.6736 117.512 38.8994 117.07 40.1251C116.628 41.453 116.406 42.5766 116.406 43.5981H141.95ZM116.406 52.7913C116.628 57.49 117.844 60.9629 120.277 63.0059C122.599 65.1509 126.027 66.1724 130.45 66.1724C133.546 66.1724 136.311 65.4574 138.633 64.0273C140.844 62.5973 142.282 60.9629 142.835 59.3286H156.657C154.446 65.6617 151.018 70.2582 146.484 72.914C141.84 75.672 136.311 76.9999 129.897 76.9999C125.363 76.9999 121.272 76.387 117.733 75.0591C114.084 73.7312 110.988 71.7904 108.555 69.3389C106.012 66.8874 104.021 64.0273 102.695 60.5544C101.368 57.1835 100.704 53.4041 100.704 49.3183C100.704 45.4367 101.368 41.7595 102.805 38.2865C104.132 34.9157 106.122 31.9534 108.776 29.5019C111.32 27.0504 114.416 25.0075 117.954 23.5774C121.493 22.1474 125.474 21.4324 129.897 21.4324C134.763 21.4324 138.965 22.3517 142.614 24.0882C146.152 25.8247 149.138 28.174 151.46 31.0341C153.782 33.9964 155.441 37.3672 156.547 41.0444C157.542 44.8238 157.874 48.7054 157.652 52.7913H116.406Z" fill="#10239E"/>
<path d="M79.6172 0.322266H95.0983V75.9104H79.6172V0.322266Z" fill="#10239E"/>
<path d="M56.2042 26.3278C55.8717 24.5064 55.2065 22.8874 54.2088 21.3696C53.1003 19.8517 51.8808 18.5363 50.3288 17.322C48.7769 16.2089 47.0031 15.2982 45.0077 14.6911C43.0123 14.084 41.0169 13.7804 38.9106 13.6792C34.9198 13.6792 31.5941 14.3875 28.9335 15.8042C26.1621 17.2208 23.945 19.0422 22.2822 21.3696C20.5084 23.6969 19.289 26.3278 18.513 29.2623C17.737 32.298 17.4045 35.3336 17.4045 38.4705C17.4045 41.5062 17.737 44.5418 18.513 47.3751C19.289 50.2084 20.5084 52.8393 22.2822 55.0655C23.945 57.3928 26.1621 59.2142 28.9335 60.6309C31.5941 62.0475 34.9198 62.6547 38.9106 62.6547C44.2317 62.6547 48.3334 61.238 51.3266 58.2024C54.3197 55.2679 56.2042 51.3215 56.8694 46.4644H73.7196C73.2761 51.0179 72.0567 55.0655 70.283 58.7083C68.3984 62.3511 65.9596 65.488 62.9665 68.0177C59.8625 70.6486 56.3151 72.5712 52.3243 73.8867C48.2226 75.3033 43.7883 75.9104 38.9106 75.9104C32.8135 75.9104 27.3815 74.9997 22.5039 73.0771C17.6262 71.1545 13.6353 68.5236 10.3097 65.0832C6.98396 61.744 4.43426 57.7976 2.66056 53.2441C0.886852 48.6906 0 43.7323 0 38.4705C0 33.1075 0.886852 28.1492 2.66056 23.4945C4.43426 18.8398 6.98396 14.7923 10.3097 11.3519C13.6353 8.01262 17.6262 5.28052 22.5039 3.25674C27.3815 1.33415 32.8135 0.423453 38.9106 0.322266C43.234 0.322266 47.3357 0.929398 51.2157 2.04247C55.0957 3.25674 58.5322 4.87576 61.6362 7.10192C64.7402 9.32808 67.2899 11.959 69.2853 15.197C71.2807 18.4351 72.5001 22.1791 73.0544 26.3278H56.2042Z" fill="#10239E"/>
</svg>
