<svg width="72" height="19" viewBox="0 0 72 19" fill="none" xmlns="http://www.w3.org/2000/svg">
<path d="M46.6973 9.31022H49.2203V10.9754H49.2577C49.3699 10.7152 49.5381 10.455 49.7623 10.2122C49.9679 9.96935 50.2109 9.77855 50.4912 9.6051C50.7529 9.43164 51.0519 9.31022 51.3696 9.20615C51.6687 9.11942 52.0051 9.08473 52.3415 9.06738C52.5097 9.06738 52.6966 9.10207 52.9209 9.15411V11.4437C52.79 11.4264 52.6405 11.409 52.4723 11.3917C52.2854 11.3743 52.1172 11.357 51.9677 11.357C51.4818 11.357 51.0706 11.4437 50.7342 11.5825C50.3978 11.7386 50.1174 11.9467 49.9119 12.2069C49.7063 12.4671 49.5568 12.762 49.482 13.1089C49.3885 13.4558 49.3512 13.8374 49.3512 14.2364V18.3184H46.6973V9.31022Z" fill="#10239E"/>
<path d="M43.1235 12.8314C42.9927 12.2069 42.7684 11.7386 42.4507 11.409C42.133 11.0968 41.647 10.9407 41.0116 10.9234C40.5817 10.9234 40.2266 10.9927 39.9463 11.1315C39.666 11.2703 39.4417 11.4264 39.2735 11.6172C39.1053 11.8253 38.9931 12.0335 38.9184 12.2416C38.8436 12.4671 38.8062 12.6579 38.8062 12.8314H43.1235ZM38.8062 14.3925C38.8436 15.1904 39.0492 15.7801 39.4604 16.127C39.8529 16.4913 40.4322 16.6647 41.1798 16.6647C41.7031 16.6647 42.1704 16.5433 42.5628 16.3005C42.9366 16.0577 43.1796 15.7801 43.273 15.5026H45.6092C45.2354 16.578 44.6561 17.3586 43.8898 17.8096C43.1048 18.2779 42.1704 18.5034 41.0864 18.5034C40.3201 18.5034 39.6286 18.3993 39.0305 18.1738C38.4138 17.9483 37.8905 17.6188 37.4793 17.2025C37.0494 16.7862 36.713 16.3005 36.4888 15.7107C36.2645 15.1383 36.1523 14.4965 36.1523 13.8027C36.1523 13.1436 36.2645 12.5192 36.5074 11.9294C36.7317 11.357 37.0681 10.854 37.5167 10.4377C37.9465 10.0214 38.4698 9.67448 39.0679 9.43164C39.666 9.1888 40.3388 9.06738 41.0864 9.06738C41.9087 9.06738 42.6189 9.22349 43.2357 9.51837C43.8337 9.81324 44.3383 10.2122 44.7308 10.6979C45.1233 11.2009 45.4036 11.7733 45.5905 12.3977C45.7587 13.0395 45.8148 13.6987 45.7774 14.3925H38.8062Z" fill="#10239E"/>
<path d="M32.8924 18.3184H29.9394L26.6484 9.3103H29.4332L31.4703 15.4333H31.5077L33.5449 9.3103H36.1801L32.8924 18.3184Z" fill="#10239E"/>
<path d="M23.9907 12.8314C23.8599 12.2069 23.6356 11.7386 23.3179 11.409C23.0002 11.0968 22.5142 10.9407 21.8788 10.9234C21.4489 10.9234 21.0938 10.9927 20.8135 11.1315C20.5332 11.2703 20.3089 11.4264 20.1407 11.6172C19.9725 11.8253 19.8603 12.0335 19.7856 12.2416C19.7108 12.4671 19.6734 12.6579 19.6734 12.8314H23.9907ZM19.6734 14.3925C19.7108 15.1904 19.9164 15.7801 20.3276 16.127C20.72 16.4913 21.2994 16.6647 22.047 16.6647C22.5703 16.6647 23.0375 16.5433 23.43 16.3005C23.8038 16.0577 24.0468 15.7801 24.1402 15.5026H26.4764C26.1026 16.578 25.5232 17.3586 24.757 17.8096C23.972 18.2779 23.0375 18.5034 21.9535 18.5034C21.1873 18.5034 20.4958 18.3993 19.8977 18.1738C19.281 17.9483 18.7577 17.6188 18.3465 17.2025C17.9166 16.7862 17.5802 16.3005 17.3559 15.7107C17.1317 15.1383 17.0195 14.4965 17.0195 13.8027C17.0195 13.1436 17.1317 12.5192 17.3746 11.9294C17.5989 11.357 17.9353 10.854 18.3839 10.4377C18.8137 10.0214 19.337 9.67448 19.9351 9.43164C20.5332 9.1888 21.206 9.06738 21.9535 9.06738C22.7759 9.06738 23.4861 9.22349 24.1028 9.51837C24.7009 9.81324 25.2055 10.2122 25.598 10.6979C25.9905 11.2009 26.2708 11.7733 26.4577 12.3977C26.6259 13.0395 26.682 13.6987 26.6446 14.3925H19.6734Z" fill="#10239E"/>
<path d="M13.4561 5.48267H16.0726V18.3184H13.4561V5.48267Z" fill="#10239E"/>
<path d="M9.49833 9.89871C9.44212 9.58941 9.3297 9.31448 9.16108 9.05674C8.97371 8.79899 8.76762 8.57561 8.50531 8.36942C8.243 8.1804 7.94322 8.02576 7.60596 7.92266C7.26871 7.81956 6.93146 7.76801 6.57547 7.75083C5.90096 7.75083 5.33887 7.87111 4.8892 8.11167C4.42079 8.35223 4.04607 8.66153 3.76502 9.05674C3.46524 9.45195 3.25914 9.89871 3.12799 10.397C2.99683 10.9125 2.94062 11.428 2.94062 11.9607C2.94062 12.4762 2.99683 12.9917 3.12799 13.4728C3.25914 13.9539 3.46524 14.4007 3.76502 14.7787C4.04607 15.1739 4.42079 15.4832 4.8892 15.7238C5.33887 15.9643 5.90096 16.0674 6.57547 16.0674C7.47481 16.0674 8.16805 15.8269 8.67393 15.3114C9.17981 14.8131 9.49833 14.1429 9.61075 13.3181H12.4587C12.3837 14.0914 12.1776 14.7787 11.8778 15.3973C11.5593 16.0159 11.1471 16.5485 10.6412 16.9781C10.1166 17.4249 9.51707 17.7514 8.84256 17.9747C8.14932 18.2153 7.39987 18.3184 6.57547 18.3184C5.54497 18.3184 4.62689 18.1637 3.80249 17.8373C2.9781 17.5108 2.30359 17.064 1.7415 16.4798C1.17941 15.9128 0.748476 15.2426 0.448695 14.4694C0.148914 13.6962 -0.000976562 12.8542 -0.000976562 11.9607C-0.000976562 11.05 0.148914 10.208 0.448695 9.41758C0.748476 8.62716 1.17941 7.93984 1.7415 7.35562C2.30359 6.78858 2.9781 6.32463 3.80249 5.98097C4.62689 5.6545 5.54497 5.49985 6.57547 5.48267C7.30618 5.48267 7.99943 5.58576 8.6552 5.77478C9.31097 5.98097 9.89179 6.2559 10.4164 6.63393C10.941 7.01196 11.372 7.45871 11.7092 8.00857C12.0465 8.55843 12.2526 9.1942 12.3462 9.89871H9.49833Z" fill="#10239E"/>
<path d="M69.1589 6.64221H71.4557V9.13047H69.1589V13.8852C69.1589 15.5034 69.2585 15.4986 69.4579 15.6882C69.6572 15.8778 70.056 15.9726 70.654 15.9726C70.8534 15.9963 71.0278 15.9726 71.2272 15.9489C71.4016 15.9489 71.6426 15.8146 71.7672 15.6882V18.2949C71.4557 18.4287 71.1026 18.5793 70.7537 18.5793C70.3799 18.603 70.031 18.603 69.6822 18.603C69.6588 18.603 69.2642 18.603 69.0981 18.5793C68.6934 18.5216 68.0916 18.3068 67.7178 18.0935C67.5102 17.975 66.9702 17.4418 66.9079 17.2048C66.7211 16.9086 66.6171 16.328 66.6171 15.7119V9.13047H64.416V6.64221H66.6171V2.49512H69.1589V6.64221Z" fill="#10239E"/>
<path fill-rule="evenodd" clip-rule="evenodd" d="M53.4521 9.13047H55.1965V18.3186H57.9875V9.13047H60.0558L60.0558 6.64221H57.9875L57.9875 6.42894C57.9875 5.93129 58.0872 5.4587 58.2865 5.24542C58.4859 5.03214 58.8347 4.91365 59.3331 4.91365C59.7817 4.91365 60.2053 4.93735 60.6289 4.98474V2.49512L59.682 2.49512L58.7475 2.49512C57.5638 2.49512 56.6294 3.06918 56.0687 3.62076C55.346 4.33169 55.1965 5.14926 55.1965 6.21566L55.1965 6.64221H53.4521L53.4521 9.13047ZM63.6691 10.1969H60.9529V18.3186H63.6691V10.1969Z" fill="#10239E"/>
<path d="M63.6691 7.91006C63.6691 8.63192 63.0827 9.21711 62.3608 9.21711C61.6389 9.21711 61.0525 8.63192 61.0525 7.91005C61.0525 7.18819 61.6389 6.603 62.3608 6.603C63.0827 6.603 63.6691 7.18819 63.6691 7.91006Z" fill="#40A9FF"/>
</svg>
